<svg xmlns="http://www.w3.org/2000/svg" width="960" height="720" viewBox="0 0 960 720" role="img"><rect width="960" height="720" fill="#f4eee2"/><path d="M55 64L905 64" fill="none" stroke="#26232a" stroke-width="1"/><path d="M55 656L905 656" fill="none" stroke="#26232a" stroke-width="1"/><rect x="55" y="96" width="850" height="520" fill="#d8e7df"/><path d="M95 116Q120 330 100 595" fill="none" stroke="#9ebdb2" stroke-width="32"/><path d="M220 116Q240 330 226 595" fill="none" stroke="#3d726a" stroke-width="18"/><path d="M345 116Q360 330 352 595" fill="none" stroke="#9ebdb2" stroke-width="32"/><path d="M470 116Q480 330 478 595" fill="none" stroke="#3d726a" stroke-width="18"/><path d="M595 116Q600 330 604 595" fill="none" stroke="#9ebdb2" stroke-width="32"/><path d="M720 116Q720 330 730 595" fill="none" stroke="#3d726a" stroke-width="18"/><rect x="120" y="160" width="520" height="190" fill="#f7f3e8"/><text x="155" y="250" font-family="Arial,Apple SD Gothic Neo,sans-serif" font-size="82" font-weight="700" fill="#26232a">읽는 길</text><text x="155" y="305" font-family="Arial,Apple SD Gothic Neo,sans-serif" font-size="24" font-weight="500" fill="#26232a">READING ROUTES</text><text x="55" y="45" font-family="Arial,Apple SD Gothic Neo,sans-serif" font-size="15" font-weight="500" fill="#26232a">INFORMATION DESIGN</text><text x="825" y="690" font-family="Arial,Apple SD Gothic Neo,sans-serif" font-size="15" font-weight="500" fill="#26232a">03 / 03</text></svg>
