<svg xmlns="http://www.w3.org/2000/svg" width="960" height="720" viewBox="0 0 960 720" role="img"><rect width="960" height="720" fill="#f7faf9"/><rect x="0" y="0" width="960" height="104" fill="#e9f3f5"/><text x="52" y="61" font-family="Arial,Apple SD Gothic Neo,sans-serif" font-size="22" font-weight="700" fill="#173b52">CITY CLIMATE / OPEN NOTE 03</text><path d="M52 118L908 118" fill="none" stroke="#b9d0d8" stroke-width="2"/><path d="M98 540L190 220L295 255L357 168L471 290L580 203L700 312L849 210L815 562Z" fill="#bfd8d0" stroke="#6aaba3" stroke-width="4"/><path d="M190 220L357 168L471 290L300 391Z" fill="#85bcae"/><path d="M471 290L580 203L700 312L630 500L405 478Z" fill="#e6b878"/><path d="M700 312L849 210L815 562L630 500Z" fill="#cc8455"/><circle cx="160" cy="250" r="9" fill="#173b52" opacity=".82"/><circle cx="238" cy="342" r="13" fill="#d46b3c" opacity=".82"/><circle cx="316" cy="434" r="17" fill="#d46b3c" opacity=".82"/><circle cx="394" cy="250" r="9" fill="#173b52" opacity=".82"/><circle cx="472" cy="342" r="13" fill="#d46b3c" opacity=".82"/><circle cx="550" cy="434" r="17" fill="#d46b3c" opacity=".82"/><circle cx="628" cy="250" r="9" fill="#173b52" opacity=".82"/><circle cx="706" cy="342" r="13" fill="#d46b3c" opacity=".82"/><circle cx="784" cy="434" r="17" fill="#d46b3c" opacity=".82"/><text x="82" y="650" font-family="Arial,Apple SD Gothic Neo,sans-serif" font-size="18" font-weight="700" fill="#173b52">GREEN ACCESS / DISTRICT</text></svg>
